<svg xmlns="http://www.w3.org/2000/svg" version="1.1" xmlns:xlink="http://www.w3.org/1999/xlink" xmlns:svgjs="http://svgjs.dev/svgjs" width="600" height="600" preserveAspectRatio="none" viewBox="0 0 600 600"><g mask="url(&quot;#SvgjsMask1875&quot;)" fill="none"><use xlink:href="#SvgjsG1880" transform="translate(0, 0)" fill="#0f457b"></use></g><defs><mask id="SvgjsMask1875"><rect width="600" height="600" fill="#ffffff"></rect></mask><g id="SvgjsG1878"><path d="M3.37 10.81C3.49 7.51 8.34 0.37 8.34 0.37s4.34 7.46 4.23 10.76c-0.08 2.25-1.67 4.72-4.76 4.61-3.09-0.11-4.51-2.68-4.44-4.93z" fill-rule="evenodd"></path></g><g id="SvgjsG1876"><path d="M7.45 15.47C3.2 15.32-0.14 11.74 0.01 7.49 0.16 3.24 3.74-0.1 7.99 0.05S15.58 3.78 15.44 8.03c-0.15 4.25-3.73 7.59-7.99 7.44z m0.07-1.91c3.2 0.11 5.9-2.4 6.01-5.6 0.11-3.2-2.41-5.89-5.61-6.01-3.2-0.11-5.89 2.4-6 5.6-0.11 3.2 2.4 5.9 5.6 6.01z"></path><path d="M7.73 8.78a0.57 0.57 0 0 1-0.56-0.06 0.58 0.58 0 0 1-0.24-0.41L7.08 3.83a0.58 0.58 0 0 1 1.16 0.04l-0.12 3.47 3.02-1.29a0.58 0.58 0 0 1 0.76 0.3c0.13 0.3-0.01 0.64-0.3 0.76l-3.87 1.67z"></path></g><g id="SvgjsG1877"><path d="M11.98 8.38a46.75 46.75 0 0 1-0.51-0.42c-0.14-0.12-0.28-0.24-0.43-0.37-0.86-0.72-1.75-1.38-2.76-1.5A2.81 2.81 0 0 0 8.02 6.07c-0.09 0-0.17 0.01-0.25 0.01-1.02 0.06-1.97 0.65-2.88 1.3l0.09 0.08c0.1 0.09 0.21 0.18 0.31 0.26C6.2 7.07 7.07 6.54 8 6.58c0.93 0.03 1.76 0.62 2.62 1.32a35.1 35.1 0 0 1 0.52 0.44c0.14 0.12 0.27 0.24 0.41 0.36C12.48 9.48 13.46 10.19 14.58 10.23c0.44 0.02 0.86-0.07 1.27-0.23l0.02-0.55c-0.42 0.18-0.84 0.29-1.27 0.27-0.93-0.03-1.77-0.63-2.62-1.34z"></path><path d="M11.59 7.62c0.03 0.02 0.06 0.05 0.08 0.07 0.11 0.09 0.21 0.18 0.32 0.27 0.33-0.23 0.65-0.45 0.98-0.64l-0.05 1.37c0.17 0.12 0.33 0.23 0.5 0.32L13.48 7.07c0.32-0.14 0.64-0.23 0.97-0.25l-0.08 2.53c0.08 0.01 0.16 0.02 0.23 0.03 0.09 0 0.18 0 0.28-0.01L14.96 6.83c0.34 0.05 0.66 0.17 0.99 0.34L15.97 6.61C15.57 6.43 15.16 6.32 14.73 6.3c-1.13-0.04-2.15 0.61-3.14 1.32z m-7.28 0.83c-0.03-0.03-0.07-0.06-0.1-0.09-0.1-0.09-0.2-0.17-0.3-0.25-0.9 0.65-1.78 1.18-2.71 1.14C0.77 9.24 0.36 9.09-0.04 8.87l-0.01 0.56C0.34 9.62 0.75 9.75 1.18 9.76c1.12 0.04 2.14-0.6 3.13-1.31z"></path><path d="M0.95 8.89c0.08 0.01 0.17 0.02 0.26 0.03 0.09 0 0.17 0 0.25-0.01L1.55 6.37c0.33 0.05 0.64 0.16 0.96 0.31 0 0.01-0.01 0.02-0.01 0.04l-0.07 1.9a5.82 5.82 0 0 0 0.52-0.28L3 6.98c0.48 0.32 0.95 0.72 1.43 1.13C5.49 9.01 6.58 9.95 7.88 10c1.12 0.04 2.14-0.6 3.12-1.31l-0.1-0.09c-0.1-0.09-0.2-0.17-0.3-0.25-0.32 0.23-0.64 0.44-0.95 0.62L9.69 7.62A5.82 5.82 0 0 0 9.2 7.3l-0.07 1.89c0 0.01 0 0.02 0 0.03-0.32 0.14-0.65 0.23-0.97 0.26L8.25 6.94a1.97 1.97 0 0 0-0.27-0.02c-0.08 0-0.16 0-0.24 0l-0.09 2.54c-0.33-0.05-0.65-0.16-0.96-0.31 0-0.01 0.01-0.02 0.01-0.04L6.76 7.2a5.63 5.63 0 0 0-0.52 0.29l-0.04 1.37c-0.48-0.32-0.95-0.72-1.44-1.14C3.7 6.82 2.61 5.88 1.31 5.83c-0.43-0.02-0.85 0.07-1.25 0.21l-0.02 0.55c0.33-0.13 0.66-0.22 1-0.24L0.95 8.89z"></path></g><g id="SvgjsG1879"><path d="M15.18 9.68c0.29 0.01 0.58-0.22 0.63-0.51 0 0 0.07-0.41 0.08-0.89s-0.02-0.9-0.02-0.9c-0.03-0.29-0.3-0.54-0.59-0.56l-1.52-0.05c-0.29-0.01-0.6-0.21-0.67-0.44s-0.15-0.97 0.06-1.17l1.12-1.04c0.22-0.2 0.24-0.56 0.06-0.79l-1.22-1.32c-0.22-0.2-0.58-0.19-0.8 0.01l-1.11 1.04c-0.22 0.2-0.57 0.27-0.78 0.16s-0.8-0.58-0.79-0.87L9.68 0.82c0.01-0.29-0.22-0.58-0.51-0.63 0 0-0.41-0.07-0.89-0.08s-0.9 0.03-0.9 0.02c-0.29 0.03-0.54 0.3-0.56 0.59l-0.05 1.52c-0.01 0.29-0.21 0.59-0.44 0.67s-0.97 0.15-1.18-0.06l-1.04-1.12C3.91 1.52 3.56 1.49 3.33 1.67l-1.32 1.22c-0.2 0.22-0.19 0.58 0.01 0.8l1.04 1.11c0.2 0.22 0.27 0.57 0.16 0.78s-0.58 0.8-0.87 0.79L0.82 6.32c-0.29-0.01-0.58 0.22-0.63 0.51 0 0-0.07 0.41-0.08 0.89s0.03 0.9 0.02 0.9c0.03 0.29 0.3 0.54 0.59 0.56l1.53 0.05c0.29 0.01 0.59 0.21 0.66 0.44 0.07 0.23 0.15 0.97-0.06 1.18l-1.11 1.03C1.52 12.09 1.49 12.44 1.67 12.68l1.22 1.31c0.22 0.2 0.58 0.19 0.8-0.01l1.11-1.04c0.22-0.2 0.57-0.27 0.78-0.16s0.8 0.58 0.79 0.88l-0.05 1.52c-0.01 0.29 0.22 0.58 0.51 0.63 0 0 0.41 0.07 0.9 0.09s0.9-0.02 0.9-0.03c0.29-0.03 0.54-0.3 0.55-0.59l0.05-1.52c0.01-0.29 0.21-0.6 0.44-0.67 0.23-0.07 0.97-0.15 1.18 0.06l1.04 1.12c0.2 0.22 0.56 0.24 0.79 0.06l1.31-1.22c0.2-0.22 0.19-0.58-0.01-0.79l-1.04-1.12c-0.2-0.22-0.27-0.57-0.16-0.78 0.11-0.21 0.58-0.8 0.88-0.79l1.52 0.05zM7.9 10.89c-1.6-0.06-2.84-1.39-2.79-2.99 0.06-1.6 1.4-2.84 2.99-2.79S10.95 6.51 10.89 8.1 9.5 10.95 7.9 10.89z"></path></g><g id="SvgjsG1880"><use xlink:href="#SvgjsG1876" transform="translate(0, 0) scale(2.5)" fill="#0f457b"></use><use xlink:href="#SvgjsG1877" transform="translate(0, 77.5) scale(2.5)" fill="#0f457b"></use><use xlink:href="#SvgjsG1878" transform="translate(0, 155) scale(2.5)" fill="#0f457b"></use><use xlink:href="#SvgjsG1878" transform="translate(0, 232.5) scale(2.5)" fill="#0f457b"></use><use xlink:href="#SvgjsG1879" transform="translate(0, 310) scale(2.5)" fill="#0f457b"></use><use xlink:href="#SvgjsG1876" transform="translate(0, 387.5) scale(2.5)" fill="#0f457b"></use><use xlink:href="#SvgjsG1879" transform="translate(0, 465) scale(2.5)" fill="#0f457b"></use><use xlink:href="#SvgjsG1876" transform="translate(0, 542.5) scale(2.5)" fill="#0f457b"></use><use xlink:href="#SvgjsG1876" transform="translate(77.5, 0) scale(2.5)" fill="#0f457b"></use><use xlink:href="#SvgjsG1877" transform="translate(77.5, 77.5) scale(2.5)" fill="#0f457b"></use><use xlink:href="#SvgjsG1876" transform="translate(77.5, 155) scale(2.5)" fill="#0f457b"></use><use xlink:href="#SvgjsG1876" transform="translate(77.5, 232.5) scale(2.5)" fill="#0f457b"></use><use xlink:href="#SvgjsG1877" transform="translate(77.5, 310) scale(2.5)" fill="#0f457b"></use><use xlink:href="#SvgjsG1878" transform="translate(77.5, 387.5) scale(2.5)" fill="#0f457b"></use><use xlink:href="#SvgjsG1876" transform="translate(77.5, 465) scale(2.5)" fill="#0f457b"></use><use xlink:href="#SvgjsG1879" transform="translate(77.5, 542.5) scale(2.5)" fill="#0f457b"></use><use xlink:href="#SvgjsG1879" transform="translate(155, 0) scale(2.5)" fill="#0f457b"></use><use xlink:href="#SvgjsG1878" transform="translate(155, 77.5) scale(2.5)" fill="#0f457b"></use><use xlink:href="#SvgjsG1877" transform="translate(155, 155) scale(2.5)" fill="#0f457b"></use><use xlink:href="#SvgjsG1876" transform="translate(155, 232.5) scale(2.5)" fill="#0f457b"></use><use xlink:href="#SvgjsG1878" transform="translate(155, 310) scale(2.5)" fill="#0f457b"></use><use xlink:href="#SvgjsG1879" transform="translate(155, 387.5) scale(2.5)" fill="#0f457b"></use><use xlink:href="#SvgjsG1879" transform="translate(155, 465) scale(2.5)" fill="#0f457b"></use><use xlink:href="#SvgjsG1879" transform="translate(155, 542.5) scale(2.5)" fill="#0f457b"></use><use xlink:href="#SvgjsG1879" transform="translate(232.5, 0) scale(2.5)" fill="#0f457b"></use><use xlink:href="#SvgjsG1876" transform="translate(232.5, 77.5) scale(2.5)" fill="#0f457b"></use><use xlink:href="#SvgjsG1876" transform="translate(232.5, 155) scale(2.5)" fill="#0f457b"></use><use xlink:href="#SvgjsG1879" transform="translate(232.5, 232.5) scale(2.5)" fill="#0f457b"></use><use xlink:href="#SvgjsG1879" transform="translate(232.5, 310) scale(2.5)" fill="#0f457b"></use><use xlink:href="#SvgjsG1877" transform="translate(232.5, 387.5) scale(2.5)" fill="#0f457b"></use><use xlink:href="#SvgjsG1876" transform="translate(232.5, 465) scale(2.5)" fill="#0f457b"></use><use xlink:href="#SvgjsG1878" transform="translate(232.5, 542.5) scale(2.5)" fill="#0f457b"></use><use xlink:href="#SvgjsG1876" transform="translate(310, 0) scale(2.5)" fill="#0f457b"></use><use xlink:href="#SvgjsG1877" transform="translate(310, 77.5) scale(2.5)" fill="#0f457b"></use><use xlink:href="#SvgjsG1876" transform="translate(310, 155) scale(2.5)" fill="#0f457b"></use><use xlink:href="#SvgjsG1878" transform="translate(310, 232.5) scale(2.5)" fill="#0f457b"></use><use xlink:href="#SvgjsG1877" transform="translate(310, 310) scale(2.5)" fill="#0f457b"></use><use xlink:href="#SvgjsG1876" transform="translate(310, 387.5) scale(2.5)" fill="#0f457b"></use><use xlink:href="#SvgjsG1877" transform="translate(310, 465) scale(2.5)" fill="#0f457b"></use><use xlink:href="#SvgjsG1878" transform="translate(310, 542.5) scale(2.5)" fill="#0f457b"></use><use xlink:href="#SvgjsG1877" transform="translate(387.5, 0) scale(2.5)" fill="#0f457b"></use><use xlink:href="#SvgjsG1877" transform="translate(387.5, 77.5) scale(2.5)" fill="#0f457b"></use><use xlink:href="#SvgjsG1879" transform="translate(387.5, 155) scale(2.5)" fill="#0f457b"></use><use xlink:href="#SvgjsG1877" transform="translate(387.5, 232.5) scale(2.5)" fill="#0f457b"></use><use xlink:href="#SvgjsG1879" transform="translate(387.5, 310) scale(2.5)" fill="#0f457b"></use><use xlink:href="#SvgjsG1877" transform="translate(387.5, 387.5) scale(2.5)" fill="#0f457b"></use><use xlink:href="#SvgjsG1879" transform="translate(387.5, 465) scale(2.5)" fill="#0f457b"></use><use xlink:href="#SvgjsG1878" transform="translate(387.5, 542.5) scale(2.5)" fill="#0f457b"></use><use xlink:href="#SvgjsG1877" transform="translate(465, 0) scale(2.5)" fill="#0f457b"></use><use xlink:href="#SvgjsG1879" transform="translate(465, 77.5) scale(2.5)" fill="#0f457b"></use><use xlink:href="#SvgjsG1877" transform="translate(465, 155) scale(2.5)" fill="#0f457b"></use><use xlink:href="#SvgjsG1876" transform="translate(465, 232.5) scale(2.5)" fill="#0f457b"></use><use xlink:href="#SvgjsG1879" transform="translate(465, 310) scale(2.5)" fill="#0f457b"></use><use xlink:href="#SvgjsG1876" transform="translate(465, 387.5) scale(2.5)" fill="#0f457b"></use><use xlink:href="#SvgjsG1876" transform="translate(465, 465) scale(2.5)" fill="#0f457b"></use><use xlink:href="#SvgjsG1876" transform="translate(465, 542.5) scale(2.5)" fill="#0f457b"></use><use xlink:href="#SvgjsG1876" transform="translate(542.5, 0) scale(2.5)" fill="#0f457b"></use><use xlink:href="#SvgjsG1878" transform="translate(542.5, 77.5) scale(2.5)" fill="#0f457b"></use><use xlink:href="#SvgjsG1876" transform="translate(542.5, 155) scale(2.5)" fill="#0f457b"></use><use xlink:href="#SvgjsG1878" transform="translate(542.5, 232.5) scale(2.5)" fill="#0f457b"></use><use xlink:href="#SvgjsG1877" transform="translate(542.5, 310) scale(2.5)" fill="#0f457b"></use><use xlink:href="#SvgjsG1876" transform="translate(542.5, 387.5) scale(2.5)" fill="#0f457b"></use><use xlink:href="#SvgjsG1877" transform="translate(542.5, 465) scale(2.5)" fill="#0f457b"></use><use xlink:href="#SvgjsG1878" transform="translate(542.5, 542.5) scale(2.5)" fill="#0f457b"></use></g></defs></svg>